<svg width="808" height="394">
  <g stroke="#DC6F94" stroke-width="6" fill="none" fill-rule="evenodd">
    <ellipse cx="404.5" cy="247.5" rx="55.5" ry="25.5"/>
    <ellipse cx="404.5" cy="219" rx="113.5" ry="54"/>
    <ellipse cx="404.5" cy="196.5" rx="159.5" ry="76.5"/>
    <ellipse cx="404" cy="197" rx="245" ry="118"/>
    <ellipse cx="404.5" cy="197.5" rx="309.5" ry="149.5"/>
    <ellipse cx="404" cy="197" rx="401" ry="194"/>
    <path stroke-linecap="square" d="M404.25 269.727L404.5 7M457.403 248c-5.107-71.265 3.73-125.689 26.507-163.27C506.688 47.146 541.051 27.57 587 26M350.597 248c5.107-71.265-3.73-125.689-26.507-163.27C301.312 47.146 266.949 27.57 221 26M294 229c-15.444-41.716-51.887-71.779-109.33-90.188-57.442-18.41-105.333-25.166-143.67-20.269M514 229c15.456-41.716 51.928-71.779 109.416-90.188 57.488-18.41 105.683-25.166 144.584-20.269M345 266.974c-48.342-9.299-96.684-9.299-145.026 0C151.632 276.272 111.308 290.28 79 309M458 266.98c48.347-9.306 96.695-9.306 145.042 0C651.39 276.284 693.376 290.291 729 309M369 269c-25.558 9.934-44.585 26.248-57.078 48.942-12.494 22.693-18.456 44.046-17.885 64.058M439 269c25.547 9.92 44.564 26.21 57.052 48.87 12.488 22.661 18.46 44.038 17.914 64.13"/>
  </g>
</svg>